<?xml version="1.0" standalone="no"?>
<!DOCTYPE svg PUBLIC "-//W3C//DTD SVG 20010904//EN"
 "http://www.w3.org/TR/2001/REC-SVG-20010904/DTD/svg10.dtd">
<svg version="1.0" xmlns="http://www.w3.org/2000/svg"
 width="512.000000pt" height="512.000000pt" viewBox="0 0 512.000000 512.000000"
 preserveAspectRatio="xMidYMid meet">

<g transform="translate(0.000000,512.000000) scale(0.100000,-0.100000)"
fill="#000000" stroke="none">
<path d="M2605 4440 c-11 -5 -238 -218 -504 -474 l-484 -466 -272 0 c-260 0
-273 -1 -299 -21 l-26 -20 0 -189 0 -189 26 -20 c24 -19 40 -21 151 -21 l124
0 -3 -137 -3 -138 -282 -5 c-176 -3 -286 -9 -292 -15 -6 -6 -80 -157 -164
-335 l-153 -325 -198 -81 c-109 -44 -205 -89 -212 -99 -10 -13 -14 -52 -14
-135 0 -103 2 -119 20 -138 14 -15 33 -22 55 -22 53 0 69 26 75 122 l5 82 165
67 165 68 315 1 c339 1 339 1 360 54 6 17 10 141 10 317 l0 289 75 0 75 0 -2
-687 -3 -688 -51 -3 -51 -3 -12 47 c-19 75 -69 164 -124 219 -263 262 -697
152 -808 -204 l-17 -56 -51 -3 -51 -3 0 69 c0 55 -4 72 -20 90 -28 30 -82 30
-110 0 -18 -19 -20 -35 -20 -139 0 -161 2 -163 148 -167 l110 -4 7 -36 c19
-103 118 -238 217 -296 158 -92 360 -91 507 3 97 63 175 166 206 274 l16 57
754 0 753 0 7 -32 c24 -108 114 -233 216 -299 132 -85 331 -95 470 -24 114 58
203 162 241 283 l23 72 85 -2 84 -3 8 -39 c14 -69 77 -173 137 -228 263 -241
675 -135 788 202 l22 65 141 5 c190 7 180 -6 180 232 0 177 0 179 -25 203 -21
21 -33 25 -89 25 l-65 0 -3 305 c-3 298 -3 305 -25 326 -27 27 -75 29 -103 4
-19 -17 -20 -30 -20 -327 l0 -308 -87 0 c-72 0 -94 4 -118 20 -151 102 -359
105 -518 9 l-47 -29 -260 0 -259 0 -63 35 c-162 88 -357 85 -499 -10 l-39 -25
-715 0 -715 0 0 750 0 750 1660 0 1660 0 0 -305 c0 -292 1 -306 20 -325 27
-27 81 -26 106 1 18 20 19 42 22 324 l3 303 71 4 c107 6 108 8 108 230 0 177
0 179 -25 203 l-24 25 -308 0 -308 0 -90 91 c-50 49 -104 99 -122 110 -55 35
-113 1 -113 -65 0 -24 12 -42 57 -83 l57 -53 -507 0 c-279 0 -507 2 -507 4 0
2 113 113 251 247 l250 242 87 -85 c119 -117 143 -128 187 -83 27 26 32 70 12
95 -7 8 -67 68 -133 133 -161 156 -144 158 -328 -20 -77 -76 -162 -157 -187
-181 l-45 -43 -97 91 c-82 76 -102 90 -130 90 -43 0 -67 -26 -67 -71 0 -29 12
-46 92 -126 l92 -93 -104 -99 -105 -100 -585 -1 -585 0 70 69 c151 149 719
691 724 691 3 0 50 -41 104 -90 107 -99 130 -108 172 -65 51 50 33 81 -144
243 -100 93 -123 106 -156 92z m2365 -1170 l0 -80 -1900 0 -1900 0 0 80 0 80
1900 0 1900 0 0 -80z m-3950 -915 l0 -255 -211 0 c-118 0 -209 4 -207 9 2 5
55 119 118 255 l115 246 93 0 92 0 0 -255z m-142 -899 c288 -147 225 -574 -92
-624 -194 -31 -368 107 -383 302 -12 148 78 287 219 338 77 27 185 20 256 -16z
m2467 -1 c68 -35 118 -88 154 -164 34 -74 36 -191 4 -263 -75 -166 -279 -247
-437 -175 -206 94 -265 341 -125 518 32 40 93 82 157 106 61 22 179 12 247
-22z m1119 1 c169 -83 235 -291 144 -457 -105 -194 -363 -231 -522 -76 -73 72
-99 143 -94 252 5 93 28 147 92 213 71 75 145 104 253 98 52 -2 86 -10 127
-30z m-1724 -146 l-25 -80 -622 0 -623 0 0 80 0 80 648 0 648 0 -26 -80z
m1146 68 c-2 -7 -15 -43 -26 -80 l-22 -68 -84 0 c-80 0 -84 1 -84 23 0 12 -11
48 -24 80 l-24 57 135 0 c104 0 133 -3 129 -12z m1084 -68 l0 -80 -85 0 c-60
0 -87 4 -89 13 -3 14 -36 116 -43 135 -4 9 21 12 106 12 l111 0 0 -80z"/>
<path d="M645 1356 c-40 -17 -95 -72 -111 -113 -20 -46 -17 -130 5 -179 23
-51 80 -98 137 -114 160 -45 309 107 264 270 -13 47 -63 106 -111 130 -45 23
-138 26 -184 6z m139 -158 c23 -33 19 -64 -10 -87 -33 -26 -58 -27 -84 -1 -24
24 -26 67 -3 92 23 26 78 24 97 -4z"/>
<path d="M3105 1353 c-198 -104 -145 -388 77 -409 70 -7 149 31 192 94 40 57
48 149 18 208 -25 47 -77 99 -115 113 -41 16 -137 13 -172 -6z m137 -150 c37
-33 9 -113 -41 -113 -28 0 -71 39 -71 64 0 57 69 88 112 49z"/>
<path d="M4230 1355 c-140 -63 -170 -248 -56 -353 84 -78 194 -81 281 -10 109
90 102 261 -13 343 -36 24 -54 30 -110 32 -45 2 -79 -2 -102 -12z m126 -143
c39 -25 36 -90 -5 -111 -31 -17 -50 -13 -77 15 -42 41 -15 104 45 104 14 0 31
-4 37 -8z"/>
<path d="M2485 2791 c-22 -10 -52 -31 -66 -47 -22 -24 -327 -543 -384 -654
-26 -50 -25 -143 3 -196 40 -79 115 -124 204 -124 62 0 122 25 160 66 34 37
381 636 398 688 30 93 -15 205 -103 256 -63 36 -148 41 -212 11z m154 -157
c12 -15 21 -36 21 -48 0 -26 -343 -624 -372 -648 -26 -23 -70 -23 -99 1 -46
37 -35 64 151 386 95 165 180 308 188 318 24 28 86 23 111 -9z"/>
<path d="M3184 2781 c-59 -35 -57 -30 -265 -391 -188 -328 -192 -336 -187
-411 12 -163 178 -257 326 -183 64 32 64 31 283 409 l174 300 0 81 c0 71 -3
85 -28 122 -44 67 -97 96 -181 100 -64 3 -76 0 -122 -27z m166 -141 c40 -40
29 -67 -147 -374 -93 -160 -179 -303 -191 -318 -44 -53 -132 -23 -132 45 0 19
57 127 171 325 94 163 181 307 192 320 26 28 79 30 107 2z"/>
<path d="M3915 2791 c-22 -10 -52 -31 -67 -47 -23 -25 -312 -517 -379 -645
-61 -116 -5 -264 118 -316 76 -31 187 -7 245 54 23 25 321 531 377 640 61 121
19 253 -101 314 -49 25 -139 25 -193 0z m154 -157 c12 -15 21 -36 21 -47 0
-25 -344 -625 -372 -649 -44 -38 -128 -3 -128 53 0 21 334 613 368 652 24 28
86 23 111 -9z"/>
</g>
</svg>
